<svg width="180" height="121" viewBox="0 0 180 121" fill="none" xmlns="http://www.w3.org/2000/svg">
<mask id="mask0_2034_9408" style="mask-type:luminance" maskUnits="userSpaceOnUse" x="1" y="0" width="179" height="121">
<path d="M180 0H1V121H180V0Z" fill="white"/>
</mask>
<g mask="url(#mask0_2034_9408)">
<mask id="mask1_2034_9408" style="mask-type:luminance" maskUnits="userSpaceOnUse" x="0" y="47" width="181" height="28">
<path d="M180.103 47.1042H0.941406V74.009H180.103V47.1042Z" fill="white"/>
</mask>
<g mask="url(#mask1_2034_9408)">
<path fill-rule="evenodd" clip-rule="evenodd" d="M8.89049 47.1042H0.941406V74.009H8.89049V73.4664L9.00808 73.584L18.8322 63.76L28.6561 73.584L28.7736 73.4664V74.009H36.7226V47.1042H28.7736V62.4599L24.295 57.9813L18.8322 63.444L13.3694 57.9813L8.89049 62.4599V47.1042Z" fill="black"/>
<path d="M48.6019 67.8951L44.7056 54.2779H47.8505L50.1046 63.7394H50.2176L52.7043 54.2779H55.3971L57.8774 63.7593H57.997L60.2509 54.2779H63.3962L59.4998 67.8951H56.6938L54.1007 58.992H53.9942L51.4079 67.8951H48.6019ZM79.6784 61.0865C79.6784 62.5715 79.3965 63.8347 78.8339 64.8763C78.2751 65.918 77.5125 66.7138 76.5464 67.2634C75.5846 67.8087 74.5029 68.0812 73.302 68.0812C72.0919 68.0812 71.0053 67.8064 70.0436 67.2567C69.0817 66.7071 68.3216 65.9115 67.7633 64.8696C67.2044 63.828 66.9257 62.5669 66.9257 61.0865C66.9257 59.6015 67.2044 58.3381 67.7633 57.2965C68.3216 56.2548 69.0817 55.4613 70.0436 54.9162C71.0053 54.3666 72.0919 54.0916 73.302 54.0916C74.5029 54.0916 75.5846 54.3666 76.5464 54.9162C77.5125 55.4613 78.2751 56.2548 78.8339 57.2965C79.3965 58.3381 79.6784 59.6015 79.6784 61.0865ZM76.7592 61.0865C76.7592 60.1246 76.615 59.3133 76.327 58.653C76.0432 57.9925 75.642 57.4915 75.1235 57.1503C74.605 56.8089 73.9979 56.6383 73.302 56.6383C72.6055 56.6383 71.9984 56.8089 71.4799 57.1503C70.9613 57.4915 70.5577 57.9925 70.2697 58.653C69.9859 59.3133 69.8441 60.1246 69.8441 61.0865C69.8441 62.0484 69.9859 62.8595 70.2697 63.52C70.5577 64.1805 70.9613 64.6813 71.4799 65.0227C71.9984 65.3639 72.6055 65.5347 73.302 65.5347C73.9979 65.5347 74.605 65.3639 75.1235 65.0227C75.642 64.6813 76.0432 64.1805 76.327 63.52C76.615 62.8595 76.7592 62.0484 76.7592 61.0865ZM84.8068 67.8951V54.2779H90.1792C91.2076 54.2779 92.0851 54.4618 92.8121 54.8298C93.5434 55.1932 94.0999 55.7096 94.4808 56.3789C94.8667 57.0438 95.0593 57.8263 95.0593 58.7261C95.0593 59.6303 94.8643 60.4082 94.4742 61.0598C94.0841 61.7071 93.519 62.2035 92.7785 62.5491C92.043 62.895 91.1519 63.0679 90.1057 63.0679H86.5085V60.754H89.6404C90.1902 60.754 90.6464 60.6787 91.0101 60.5279C91.3733 60.3771 91.6443 60.1512 91.8216 59.8498C92.0031 59.5483 92.0936 59.1738 92.0936 58.7261C92.0936 58.274 92.0031 57.8927 91.8216 57.5824C91.6443 57.2722 91.3716 57.0371 91.0034 56.8776C90.6402 56.7136 90.1809 56.6316 89.6271 56.6316H87.6856V67.8951H84.8068ZM92.1603 61.6982L95.5448 67.8951H92.3665L89.0553 61.6982H92.1603ZM104.917 67.8951H100.09V54.2779H104.956C106.326 54.2779 107.506 54.5504 108.494 55.0957C109.483 55.6365 110.243 56.4144 110.775 57.4295C111.311 58.4446 111.579 59.6592 111.579 61.0731C111.579 62.4917 111.311 63.7106 110.775 64.7301C110.243 65.7496 109.478 66.5321 108.481 67.0772C107.488 67.6224 106.3 67.8951 104.917 67.8951ZM102.969 65.4282H104.797C105.648 65.4282 106.364 65.2775 106.945 64.9761C107.53 64.6702 107.969 64.1982 108.261 63.5599C108.558 62.9171 108.707 62.0882 108.707 61.0731C108.707 60.067 108.558 59.2446 108.261 58.6064C107.969 57.9681 107.532 57.4982 106.952 57.1969C106.371 56.8953 105.655 56.7447 104.804 56.7447H102.969V65.4282ZM119.261 67.8951L115.364 54.2779H118.51L120.764 63.7394H120.877L123.364 54.2779H126.056L128.536 63.7593H128.656L130.91 54.2779H134.055L130.159 67.8951H127.353L124.76 58.992H124.653L122.067 67.8951H119.261ZM139.568 67.8951H136.482L141.183 54.2779H144.893L149.588 67.8951H146.502L143.091 57.3896H142.985L139.568 67.8951ZM139.374 62.5426H146.662V64.7899H139.374V62.5426ZM154.222 67.8951V54.2779H159.594C160.623 54.2779 161.5 54.4618 162.227 54.8298C162.959 55.1932 163.515 55.7096 163.897 56.3789C164.282 57.0438 164.475 57.8263 164.475 58.7261C164.475 59.6303 164.28 60.4082 163.89 61.0598C163.5 61.7071 162.935 62.2035 162.194 62.5491C161.459 62.895 160.568 63.0679 159.522 63.0679H155.924V60.754H159.056C159.605 60.754 160.062 60.6787 160.426 60.5279C160.789 60.3771 161.059 60.1512 161.237 59.8498C161.418 59.5483 161.509 59.1738 161.509 58.7261C161.509 58.274 161.418 57.8927 161.237 57.5824C161.059 57.2722 160.787 57.0371 160.419 56.8776C160.055 56.7136 159.597 56.6316 159.043 56.6316H157.101V67.8951H154.222ZM161.576 61.6982L164.96 67.8951H161.782L158.471 61.6982H161.576ZM169.504 67.8951V54.2779H178.68V56.6516H172.384V59.8964H178.208V62.2699H172.384V65.5214H178.707V67.8951H169.504Z" fill="black"/>
</g>
</g>
</svg>
