<svg width="160" height="121" viewBox="0 0 160 121" fill="none" xmlns="http://www.w3.org/2000/svg">
<mask id="mask0_2034_9355" style="mask-type:luminance" maskUnits="userSpaceOnUse" x="0" y="41" width="160" height="39">
<path d="M160 41.4863H0V79.5148H160V41.4863Z" fill="white"/>
</mask>
<g mask="url(#mask0_2034_9355)">
<path d="M32.6886 50.4874L17.4648 41.6981C16.9759 41.4158 16.3727 41.4158 15.8839 41.6981L0.660765 50.4874C0.249812 50.7247 -0.00390625 51.1636 -0.00390625 51.6388V69.3627C-0.00390625 69.8373 0.249812 70.2768 0.660765 70.5141L15.8846 79.3034C16.3735 79.5857 16.9767 79.5857 17.4655 79.3034L32.6894 70.5141C33.1003 70.2768 33.354 69.838 33.354 69.3627V51.6388C33.354 51.1643 33.0995 50.7247 32.6886 50.4874ZM31.7324 52.3492L17.036 77.804C16.9366 77.9755 16.6743 77.9055 16.6743 77.7068V61.0393C16.6743 60.7062 16.4964 60.3982 16.2076 60.231L1.77355 51.8976C1.60203 51.7982 1.67207 51.5359 1.87075 51.5359H31.2635C31.6809 51.5359 31.9418 51.9883 31.7331 52.35L31.7324 52.3492Z" fill="black"/>
<path d="M51.6318 51.3555H58.1098V54.924H51.8512C48.475 54.924 45.8399 56.873 45.8399 60.9903C45.8399 65.1077 48.475 67.0567 51.8512 67.0567H58.1098V70.6252H51.3573C45.7026 70.6252 41.6953 67.304 41.6953 60.9911C41.6953 54.6781 45.9771 51.3569 51.6318 51.3569V51.3555Z" fill="black"/>
<path d="M61.4023 51.3555H65.4097V63.1309C65.4097 66.0676 66.7547 67.4405 69.9116 67.4405C73.0684 67.4405 74.4135 66.0683 74.4135 63.1309V51.3555H78.4208V63.9542C78.4208 68.236 75.7035 70.954 69.9116 70.954C64.1196 70.954 61.4023 68.2088 61.4023 63.9271V51.3555Z" fill="black"/>
<path d="M99.3663 56.8172C99.3663 58.9585 98.1313 60.6051 96.4839 61.3191V61.3741C98.2134 61.6214 99.0918 62.8564 99.119 64.531L99.2012 70.6245H95.1938L95.1117 65.1899C95.0845 63.9821 94.3705 63.2409 92.9432 63.2409H86.2729V70.6245H82.2656V51.3555H93.3278C96.9513 51.3555 99.3663 53.1937 99.3663 56.8172ZM95.3311 57.3668C95.3311 55.7201 94.4527 54.8139 92.806 54.8139H86.2729V59.919H92.8603C94.3698 59.919 95.3311 59.0142 95.3311 57.3668Z" fill="black"/>
<path d="M114.517 64.9957C114.517 63.6235 113.638 63.0467 112.321 62.9374L107.874 62.5257C104.031 62.1691 102.027 60.6589 102.027 57.0082C102.027 53.3575 104.498 51.3535 108.039 51.3535H117.865V54.812H108.313C106.941 54.812 106.063 55.5259 106.063 56.8982C106.063 58.2704 106.968 58.9293 108.341 59.0394L112.87 59.4239C116.301 59.7255 118.552 61.2907 118.552 64.9686C118.552 68.6464 116.164 70.6233 112.788 70.6233H102.522V67.1648H112.403C113.693 67.1648 114.517 66.2858 114.517 64.9957Z" fill="black"/>
<path d="M130.273 51.0254C136.311 51.0254 140.127 54.8955 140.127 60.9619C140.127 67.0282 136.147 70.9534 130.108 70.9534C124.07 70.9534 120.254 67.0282 120.254 60.9619C120.254 54.8955 124.234 51.0254 130.273 51.0254ZM135.982 60.989C135.982 56.9267 133.621 54.5389 130.19 54.5389C126.758 54.5389 124.398 56.9267 124.398 60.989C124.398 65.0514 126.758 67.4392 130.19 67.4392C133.621 67.4392 135.982 65.0514 135.982 60.989Z" fill="black"/>
<path d="M159.999 56.8172C159.999 58.9585 158.764 60.6051 157.117 61.3191V61.3741C158.846 61.6214 159.725 62.8564 159.752 64.531L159.834 70.6245H155.827L155.744 65.1899C155.717 63.9821 155.003 63.2409 153.576 63.2409H146.906V70.6245H142.898V51.3555H153.961C157.584 51.3555 159.999 53.1937 159.999 56.8172ZM155.964 57.3668C155.964 55.7201 155.086 54.8139 153.439 54.8139H146.906V59.919H153.493C155.003 59.919 155.964 59.0142 155.964 57.3668Z" fill="black"/>
</g>
</svg>
