<svg width="66" height="121" viewBox="0 0 66 121" fill="none" xmlns="http://www.w3.org/2000/svg">
<mask id="mask0_2034_9419" style="mask-type:luminance" maskUnits="userSpaceOnUse" x="2" y="0" width="63" height="121">
<path d="M65 0.5H2V120.5H65V0.5Z" fill="white"/>
</mask>
<g mask="url(#mask0_2034_9419)">
<mask id="mask1_2034_9419" style="mask-type:luminance" maskUnits="userSpaceOnUse" x="0" y="28" width="66" height="65">
<path d="M65.3385 28.5076H0.869141V92.977H65.3385V28.5076Z" fill="white"/>
</mask>
<g mask="url(#mask1_2034_9419)">
<path d="M65.3385 69.7848V47.1023L59.4611 41.7352L52.9442 48.6361V43.7123H51.9853V49.7187L50.4515 51.317V46.2077L45.5947 41.7352L39.7819 47.6772L40.4829 48.3782L41.9522 46.9089L43.8058 48.5716V54.1939H43.4861C40.6763 54.1939 38.9491 56.1119 38.9491 58.731C38.9491 60.0741 39.1425 60.7107 39.3332 61.1593H39.9725C40.0978 60.5245 40.441 59.9533 40.9428 59.5446C41.4446 59.1361 42.0735 58.9157 42.7205 58.9217H43.8058V69.081C40.4211 70.2307 38.4386 73.1694 38.0572 77.1934L38.5032 77.4513C40.0343 75.5977 42.0168 74.448 43.8058 74.0022V87.9946L43.9347 88.0565L50.0056 82.4987L52.8798 85.1849L53.0061 85.1177V74.2574C54.2848 74.6387 55.4345 75.5333 56.2644 76.6857L65.3385 69.7848ZM58.8217 71.1896C57.2879 69.6585 55.4372 68.8257 53.0061 68.5061V49.5951L55.7541 46.6537L58.8217 49.4662V71.1896ZM51.9853 83.009L50.4515 81.6041V52.2141L51.9826 50.6803L51.9853 83.009ZM36.459 66.8461V47.4193L30.5788 41.6708L24.5079 47.9968L18.0583 41.6708L11.9229 48.123V46.0143C11.9229 40.5855 8.53829 41.48 8.53829 37.9638C8.53829 35.7289 9.94315 34.6409 11.6678 33.8108L11.2837 33.4294C6.04547 35.2829 3.23302 38.0283 3.23302 41.0314C3.23302 43.7176 5.27726 43.8439 5.27726 46.9733V54.9595C1.44394 54.9595 0.869141 58.5403 0.869141 59.9451C0.869141 60.7752 0.998079 61.5407 1.1243 61.9249H1.63474C1.82815 60.8397 2.46742 60.0714 3.81053 60.0714H5.27726V70.2952L12.8175 76.8119L18.378 70.5531L25.6576 76.8119L36.459 66.8461ZM29.8777 71.8935L24.7013 67.4826V49.2727L26.939 47.0378L29.8777 49.9766V71.8935ZM17.9938 69.4651L16.3955 71.3186L11.9229 67.4826V49.4662L14.3513 46.9733L17.9938 50.6159V69.4651Z" fill="black"/>
</g>
</g>
</svg>
