<svg width="134" height="121" viewBox="0 0 134 121" fill="none" xmlns="http://www.w3.org/2000/svg">
<path d="M18.8114 68.8541C16.3296 68.8541 14.0028 67.3916 12.917 65.1313L14.9335 64.1785C15.6648 65.6853 17.1495 66.6382 18.8114 66.6382C20.4734 66.6382 21.9803 65.7075 22.6894 64.1785L24.7059 65.1313C23.6201 67.3916 21.2933 68.8541 18.8114 68.8541Z" fill="#040404"/>
<path fill-rule="evenodd" clip-rule="evenodd" d="M18.8114 45.0547C20.9165 45.0547 22.8223 45.2318 24.2405 45.542C25.7473 45.8523 26.678 46.2956 26.678 46.7831V47.7139C28.2513 48.5559 29.6696 49.6195 30.8883 50.9047C33.06 53.1428 34.6112 56.0015 35.2538 59.1925L36.7163 59.9902C37.3811 60.3447 37.7577 61.1204 37.6691 61.8517L36.3395 69.3859C36.1844 70.1836 35.564 70.7819 34.7663 70.8484L32.6388 71.0479C32.4394 71.2694 32.2401 71.4689 32.0407 71.6683C30.3122 73.3303 28.0075 74.4825 25.3705 75.1695C23.3762 75.7013 21.1603 75.9451 18.8557 75.9451C18.5676 75.9451 18.2573 75.9452 17.947 75.923C14.9112 75.8565 12.0969 75.3024 9.70363 74.2831C7.9309 73.5075 6.37966 72.4882 5.16091 71.1587L2.9008 70.8927C2.12521 70.8041 1.50466 70.2279 1.3717 69.4524L0.0200516 61.8737C-0.0907269 61.1425 0.263761 60.367 0.928509 60.0124L2.39096 59.2146C3.16655 55.4474 5.18325 52.1457 7.99751 49.7303C8.90604 48.9547 9.88106 48.29 10.9447 47.7139V46.7831C10.9447 46.0075 13.3601 45.3206 16.6618 45.1211C17.3488 45.0768 18.0801 45.0547 18.8114 45.0547ZM18.8114 49.8411C11.8311 49.8411 6.13602 55.5583 6.13602 62.5829C6.13602 65.6409 7.17761 67.8569 9.32709 69.3859C11.5431 70.9814 14.8227 71.8012 18.8114 71.8012C22.8001 71.8012 26.1018 70.9592 28.2956 69.3859C30.4451 67.8348 31.4867 65.6187 31.4867 62.5829C31.4867 55.5583 25.7916 49.8411 18.8114 49.8411Z" fill="#040404"/>
<path d="M52.8927 68.5439C51.7404 68.5439 50.6767 68.3223 49.7017 67.8791C48.7489 67.4138 47.9511 66.7711 47.3306 65.9291L49.2364 63.6245C50.2336 64.9984 51.4302 65.7075 52.8262 65.7075C54.7098 65.7075 55.6405 64.5995 55.6405 62.3614V50.1736H58.9866V62.2063C58.9866 64.3336 58.4769 65.9291 57.4354 66.9927C56.3939 68.0121 54.8871 68.5439 52.8927 68.5439ZM67.651 54.2731C69.6897 54.2731 71.2187 54.7606 72.2824 55.7578C73.3682 56.7328 73.9 58.1954 73.9 60.1676V68.278H70.8863V66.5939C70.4874 67.1922 69.9335 67.6575 69.18 67.9899C68.4488 68.3002 67.5845 68.4553 66.543 68.4553C65.5015 68.4553 64.6152 68.278 63.8396 67.9456C63.064 67.591 62.4657 67.0814 62.0446 66.4609C61.6236 65.8183 61.4242 65.1092 61.4242 64.3114C61.4242 63.0705 61.8895 62.0733 62.7981 61.3199C63.7288 60.5665 65.1691 60.1897 67.1635 60.1897H70.7312V59.9903C70.7312 59.0153 70.4431 58.284 69.8448 57.7522C69.2687 57.2425 68.4266 56.9766 67.2965 56.9766C66.5209 56.9766 65.7674 57.0874 64.9919 57.3311C64.2606 57.5749 63.618 57.9073 63.1083 58.3505L61.8452 56.0016C62.5765 55.4476 63.4407 55.0266 64.46 54.7385C65.4351 54.4282 66.5209 54.2731 67.651 54.2731ZM67.2078 66.1064C68.0056 66.1064 68.7368 65.9291 69.3573 65.5524C69.9999 65.1757 70.4431 64.6438 70.6869 63.9347V62.3392H67.3629C65.5015 62.3392 64.5708 62.9597 64.5708 64.1785C64.5708 64.7768 64.7924 65.2421 65.2578 65.5745C65.7453 65.9291 66.3879 66.1064 67.2078 66.1064ZM82.2985 68.4553C81.1905 68.4553 80.0826 68.3002 79.0189 68.0121C77.9552 67.724 77.1132 67.3473 76.4705 66.9041L77.7115 64.4444C78.3319 64.8654 79.0632 65.1978 79.9274 65.4637C80.8138 65.7075 81.6559 65.8183 82.498 65.8183C84.4258 65.8183 85.3787 65.3086 85.3787 64.2893C85.3787 63.8018 85.135 63.4694 84.6253 63.2699C84.1378 63.0705 83.3622 62.8932 82.2764 62.7159C81.1462 62.5387 80.2155 62.3392 79.4842 62.1176C78.7751 61.896 78.1547 61.4972 77.6228 60.9432C77.1132 60.367 76.8473 59.5914 76.8473 58.5942C76.8473 57.2868 77.3791 56.2453 78.4649 55.4476C79.5729 54.6498 81.0354 54.251 82.8968 54.251C83.8497 54.251 84.7804 54.3618 85.7333 54.5834C86.6861 54.7828 87.4617 55.0709 88.06 55.4476L86.8191 57.9073C85.6446 57.2204 84.3372 56.8658 82.8747 56.8658C81.9218 56.8658 81.2127 57.0209 80.703 57.309C80.2155 57.5749 79.9718 57.9516 79.9718 58.417C79.9718 58.9266 80.2377 59.3034 80.7473 59.5249C81.2792 59.7244 82.0991 59.9238 83.2071 60.1233C84.315 60.3005 85.2014 60.5 85.9105 60.7216C86.6196 60.9432 87.218 61.3199 87.7055 61.8517C88.2151 62.3835 88.4811 63.137 88.4811 64.1342C88.4811 65.4194 87.9271 66.4609 86.7969 67.2365C85.7554 68.0786 84.2264 68.4553 82.2985 68.4553ZM98.9404 54.2731C100.292 54.2731 101.467 54.5612 102.53 55.1595C103.594 55.7578 104.436 56.5777 105.034 57.6414C105.633 58.705 105.943 59.946 105.943 61.342C105.943 62.7381 105.633 63.979 105.034 65.0649C104.436 66.1285 103.594 66.9706 102.53 67.5467C101.489 68.145 100.292 68.4331 98.9404 68.4331C97.079 68.4331 95.6165 67.8126 94.5306 66.5717V73.2861H91.3175V54.4061H94.3755V56.2232C94.9073 55.5584 95.55 55.0709 96.3256 54.7385C97.1455 54.4504 98.0097 54.2731 98.9404 54.2731ZM98.5858 65.6853C99.7825 65.6853 100.735 65.2865 101.489 64.4887C102.264 63.691 102.641 62.6495 102.641 61.342C102.641 60.0568 102.264 58.9931 101.489 58.1954C100.735 57.3976 99.7603 56.9988 98.5858 56.9988C97.8102 56.9988 97.1233 57.176 96.5028 57.5527C95.8824 57.9073 95.3949 58.3948 95.0403 59.0596C94.6857 59.7244 94.5085 60.4778 94.5085 61.342C94.5085 62.2063 94.6857 62.9597 95.0403 63.6245C95.3949 64.2893 95.8824 64.7989 96.5028 65.1535C97.1233 65.508 97.8102 65.6853 98.5858 65.6853ZM121.942 61.4307C121.942 61.6523 121.92 61.9847 121.898 62.3835H111.106C111.306 63.4029 111.793 64.2228 112.569 64.8211C113.366 65.4194 114.364 65.7075 115.56 65.7075C117.067 65.7075 118.308 65.1978 119.305 64.2006L121.034 66.195C120.413 66.9484 119.638 67.5024 118.685 67.8791C117.732 68.2558 116.668 68.4553 115.494 68.4553C113.987 68.4553 112.657 68.145 111.505 67.5467C110.353 66.9484 109.466 66.1064 108.824 65.0427C108.203 63.9569 107.893 62.7381 107.893 61.3642C107.893 60.0125 108.203 58.8158 108.802 57.73C109.422 56.6442 110.264 55.8021 111.35 55.1817C112.436 54.5834 113.654 54.2731 115.006 54.2731C116.358 54.2731 117.532 54.5834 118.596 55.1817C119.66 55.78 120.48 56.5999 121.078 57.6857C121.632 58.7715 121.942 60.0125 121.942 61.4307ZM114.984 56.8658C113.943 56.8658 113.078 57.176 112.347 57.7965C111.638 58.3948 111.217 59.2147 111.062 60.2341H118.884C118.751 59.2369 118.33 58.417 117.621 57.7965C116.912 57.176 116.026 56.8658 114.984 56.8658ZM128.103 56.4669C129.033 55.0044 130.673 54.2953 133 54.2953V57.3755C132.734 57.3311 132.468 57.2868 132.246 57.2868C130.983 57.2868 130.008 57.6635 129.299 58.3948C128.59 59.1261 128.235 60.1676 128.235 61.5636V68.278H125.022V54.4282H128.08V56.4669H128.103Z" fill="#040404"/>
</svg>
