<svg width="134" height="121" viewBox="0 0 134 121" fill="none" xmlns="http://www.w3.org/2000/svg">
<mask id="mask0_2034_9373" style="mask-type:luminance" maskUnits="userSpaceOnUse" x="0" y="44" width="134" height="33">
<path d="M134 44.9463H0V76.0534H134V44.9463Z" fill="white"/>
</mask>
<g mask="url(#mask0_2034_9373)">
<path d="M22.1371 46.4139C20.2007 45.4966 17.8981 44.9463 15.7001 44.9463C9.07988 44.9463 5.1287 50.4235 5.54736 55.7958C5.73053 58.233 6.9342 60.5654 8.89671 62.3999C9.60321 63.055 10.3882 63.6316 11.2256 64.0771C10.5714 63.3171 10.1527 62.3736 9.99571 61.404C9.55088 58.7047 11.3302 54.7476 15.8832 54.7476C20.4363 54.7476 26.1406 59.3861 26.5854 65.0991C26.8733 68.5846 25.5388 71.7294 23.3146 73.9307C27.9461 71.2315 31.06 66.226 31.06 60.4868C31.06 54.7476 27.3966 48.9035 22.1371 46.4139Z" fill="black"/>
<path d="M25.5126 65.2041C25.3294 62.7669 24.1258 60.4345 22.1632 58.6C21.4567 57.9449 20.6717 57.3683 19.8344 56.9228C20.4886 57.6828 20.9072 58.6263 21.0642 59.5959C21.5091 62.2952 19.7297 66.2524 15.1767 66.2524C10.6237 66.2524 4.91935 61.5876 4.44835 55.8746C4.16051 52.3891 5.49502 49.2443 7.71919 47.043C3.11384 49.7422 0 54.7477 0 60.4869C0 66.2261 3.63718 72.0702 8.8967 74.5598C10.833 75.477 13.1357 76.0274 15.3337 76.0274C21.9539 76.0274 25.9051 70.5502 25.4864 65.1779L25.5126 65.2041Z" fill="black"/>
<path d="M43.777 52.7296H38.8315V68.2701H43.777C49.2197 68.2701 51.7317 65.2825 51.7317 60.5129C51.7317 55.7433 49.2197 52.7034 43.777 52.7034V52.7296ZM43.6985 66.4094H41.0033V54.5641H43.6985C47.9899 54.5641 49.4814 56.8178 49.4814 60.5129C49.4814 64.2081 47.9899 66.4094 43.6985 66.4094Z" fill="black"/>
<path d="M58.2995 56.9751C55.0286 56.9751 52.7783 59.3075 52.7783 62.793C52.7783 66.2784 55.0286 68.5322 58.2733 68.5322C61.518 68.5322 62.6693 66.986 63.2712 64.9157H61.0731C60.6283 66.0164 59.6601 66.7239 58.2733 66.7239C56.8865 66.7239 55.0548 65.5184 54.924 63.2909H63.559C63.559 62.8978 63.559 62.5571 63.559 62.2426C63.559 59.4123 61.518 57.0013 58.2733 57.0013L58.2995 56.9751ZM54.9501 61.7185C55.1856 59.8054 56.6248 58.8096 58.2471 58.8096C59.8695 58.8096 61.2825 59.9102 61.3872 61.7185H54.9501Z" fill="black"/>
<path d="M70.2316 56.9751C66.9607 56.9751 64.7104 59.3075 64.7104 62.793C64.7104 66.2784 66.9607 68.5322 70.2054 68.5322C73.4501 68.5322 74.6014 66.986 75.2033 64.9157H73.0053C72.5604 66.0164 71.5922 66.7239 70.2054 66.7239C68.8186 66.7239 66.9869 65.5184 66.8561 63.2909H75.4911C75.4911 62.8978 75.4911 62.5571 75.4911 62.2426C75.4911 59.4123 73.4501 57.0013 70.2054 57.0013L70.2316 56.9751ZM66.9084 61.7185C67.1439 59.8054 68.5831 58.8096 70.2054 58.8096C71.8277 58.8096 73.2408 59.9102 73.3193 61.7185H66.8822H66.9084Z" fill="black"/>
<path d="M82.9225 56.9752C80.96 56.9752 79.704 57.9186 79.0236 58.9931L78.8143 57.2372H76.8518V73.1446H79.0498V66.5144C79.8087 67.7723 81.1693 68.5061 82.9225 68.5061C86.1672 68.5061 88.3913 66.0951 88.3913 62.7406C88.3913 59.3862 86.1672 56.949 82.9487 56.949L82.9225 56.9752ZM82.5823 66.6192C80.5152 66.6192 79.0236 65.073 79.0236 62.7668C79.0236 60.4606 80.5152 58.9145 82.5823 58.9145C84.6495 58.9145 86.141 60.4869 86.141 62.7668C86.141 65.0468 84.6757 66.6192 82.5823 66.6192Z" fill="black"/>
<path d="M97.5496 63.2384L92.1854 52.7295H89.6211V68.27H91.8191V56.5557L96.7123 66.0425H98.3869L103.254 56.5557V68.27H105.452V52.7295H102.888L97.5496 63.2384Z" fill="black"/>
<path d="M109.377 57.2632H107.179V68.27H109.377V57.2632Z" fill="black"/>
<path d="M108.278 52.2842C107.467 52.2842 106.839 52.8607 106.839 53.6731C106.839 54.4855 107.467 55.0621 108.278 55.0621C109.089 55.0621 109.743 54.4593 109.743 53.6731C109.743 52.8869 109.115 52.2842 108.278 52.2842Z" fill="black"/>
<path d="M116.992 56.9751C115.291 56.9751 113.904 57.8137 113.197 59.1765L113.04 57.2372H111.078V68.2439H113.276V62.5571C113.276 60.1461 114.584 58.8358 116.39 58.8358C118.195 58.8358 119.085 59.9365 119.085 62.1116V68.2439H121.257V61.9019C121.257 58.5999 119.634 56.9751 116.992 56.9751Z" fill="black"/>
<path d="M131.802 52.2317V58.9406C131.043 57.6827 129.682 56.9489 127.903 56.9489C124.658 56.9489 122.46 59.3599 122.46 62.7143C122.46 66.0688 124.658 68.506 127.877 68.506C131.095 68.506 131.095 67.5625 131.802 66.4881L132.011 68.2439H133.974V52.2317H131.776H131.802ZM128.217 66.5667C126.15 66.5667 124.658 64.9943 124.658 62.7143C124.658 60.4344 126.15 58.862 128.217 58.862C130.284 58.862 131.776 60.4081 131.776 62.7143C131.776 65.0205 130.31 66.5667 128.217 66.5667Z" fill="black"/>
</g>
</svg>
