<svg width="24" height="24" viewBox="0 0 24 24" fill="none" xmlns="http://www.w3.org/2000/svg">
<path d="M21.8114 12.8045C22.1073 13.7802 22.0537 14.8265 21.6597 15.7679C21.4701 16.2211 21.2071 16.6366 20.8841 17C20.3127 17.6428 19.2834 18.138 18 18.4879L7 18.4796C5.67815 18.1284 4.60524 17.6344 3.99121 17C3.57147 16.5663 3.20766 16.0805 2.90977 15.5531C2.3546 14.5703 2.04429 13.4715 2.0044 12.3472C1.96452 11.2229 2.1962 10.1054 2.68036 9.08669C3.16453 8.06802 3.8873 7.17739 4.78911 6.48819C5.69093 5.799 6.74595 5.33098 7.86724 5.12271C8.98852 4.91445 10.1439 4.9719 11.2383 5.29033C12.3326 5.60876 13.3345 6.17906 14.1615 6.95421C14.9884 7.72936 15.6166 8.68717 15.9944 9.7487L17.1243 9.65408C18.1536 9.56909 19.1813 9.8358 20.0347 10.4094C20.8882 10.9831 21.5155 11.8287 21.8114 12.8045Z" stroke="#303030" stroke-width="2" stroke-linecap="round" stroke-linejoin="round"/>
</svg>
