<svg width="23" height="20" viewBox="0 0 23 20" fill="none" xmlns="http://www.w3.org/2000/svg">
<path d="M19 19V17C18.346 17 17.7099 16.7863 17.1885 16.3913C16.6672 15.9964 16.2892 15.4419 16.1121 14.8123C15.935 14.1827 15.9685 13.5125 16.2075 12.9037C16.4465 12.2949 16.8779 11.7809 17.436 11.4399C17.9086 11.1512 18.4501 11 19 11C19.0996 11 19.1994 11.005 19.2992 11.015C19.9499 11.0802 20.5616 11.3563 21.0409 11.8012C21.5203 12.2462 21.8411 12.8356 21.9545 13.4797C22.068 14.1238 21.9678 14.7874 21.6693 15.3693M4 19V17C3.34597 17 2.70985 16.7863 2.18851 16.3913C1.66717 15.9964 1.28918 15.4419 1.11208 14.8123C0.934978 14.1827 0.96848 13.5125 1.20748 12.9037C1.44648 12.2949 1.87789 11.7809 2.43602 11.4399C2.90858 11.1512 3.45007 11 4 11C4.09957 11 4.19941 11.005 4.29917 11.015C4.94994 11.0802 5.56158 11.3563 6.04093 11.8012C6.52029 12.2462 6.84111 12.8356 6.95454 13.4797C7.06797 14.1238 6.9678 14.7874 6.66927 15.3693M11.3879 1V3C10.7339 3 10.0978 3.21373 9.57644 3.60866C9.0551 4.00358 8.6771 4.55806 8.5 5.18766C8.32291 5.81726 8.35641 6.48748 8.59541 7.09628C8.83441 7.70508 9.26582 8.2191 9.82394 8.56007C10.2965 8.84877 10.838 9.00001 11.3879 9C11.4875 9 11.5873 8.99504 11.6871 8.98505C12.3379 8.91982 12.9495 8.64372 13.4289 8.19877C13.9082 7.75383 14.229 7.16442 14.3425 6.5203C14.4559 5.87617 14.3557 5.21263 14.0572 4.6307M19 8V1M4 8V1M11.3879 12L11.3879 19" stroke="#303030" stroke-width="2" stroke-linecap="round" stroke-linejoin="round"/>
</svg>
