<svg width="166" height="121" viewBox="0 0 166 121" fill="none" xmlns="http://www.w3.org/2000/svg">
<g clip-path="url(#clip0_2034_9390)">
<path d="M40.3356 57.8919C40.3356 56.4014 38.8451 54.8178 35.9574 55.0973C34.0011 55.2836 32.0449 56.3083 29.9955 57.2398L30.275 55.9357L31.0202 52.3958C31.486 50.2533 31.8586 49.508 32.3244 49.508C32.6038 49.508 32.7901 49.6944 32.9764 50.067C33.1628 50.4396 33.4422 50.9054 34.0943 50.9054C34.7464 50.9054 35.119 50.3464 35.119 49.6012C35.119 48.6697 34.2806 47.8313 33.2559 47.8313C30.8339 47.8313 28.9708 50.5327 27.853 55.7493L27.2941 58.3577C26.4557 58.8234 25.8036 59.0097 25.0584 59.0097C24.6858 59.0097 24.22 58.9166 23.9405 58.8234C23.9405 58.6371 24.1268 58.1713 24.1268 57.5193C24.1268 56.0288 23.2885 55.6562 22.6364 55.7493C21.8911 55.7493 20.8665 56.122 20.8665 57.7987C20.8665 58.6371 21.4254 59.3823 22.3569 59.8481C22.2638 60.0344 22.2638 60.0344 22.2638 60.2207C21.5185 62.0838 18.0718 68.7909 17.6061 68.0456C15.2772 64.7853 17.7924 56.6809 17.7924 56.6809C17.5129 56.5877 15.5567 55.563 13.4142 55.563C11.0853 55.563 9.96746 57.5193 9.78116 59.2892C9.688 60.407 10.0606 61.0591 10.8058 61.1523C11.4579 61.2454 12.0168 60.6865 12.11 59.8481C12.2032 59.196 11.8305 58.8234 11.5511 58.6371C11.3648 58.4508 11.2716 58.3577 11.2716 58.1713C11.2716 57.7987 11.7374 57.4261 12.11 57.5193C12.2032 57.5193 12.2963 57.6124 12.5758 57.6124C13.2278 57.7987 14.8115 58.4508 15.3704 57.7987C13.2278 62.2701 13.8799 69.9087 17.5129 69.5361C19.6555 69.2566 21.798 64.3195 23.7542 60.0344C23.7542 59.9413 24.4063 60.407 26.8283 60.2207C26.9214 60.2207 26.9214 60.2207 27.0146 60.2207L25.1515 68.884C24.7789 70.4676 24.3131 72.4239 23.4748 72.4239C23.1953 72.4239 23.009 72.1444 22.8227 71.7718C22.6364 71.3992 22.2638 70.8403 21.6117 70.8403C20.9596 70.8403 20.4938 71.3992 20.4938 72.1444C20.4938 73.3554 21.5185 74.0075 22.5432 74.0075C25.0584 74.0075 26.9214 71.2129 28.1324 65.5305L29.3434 59.6618C30.8339 59.196 32.1381 58.2645 33.1628 57.7056C32.9764 58.1713 32.8833 58.9166 32.8833 59.3823C32.8833 60.8728 33.7217 62.0838 34.5601 63.4811C35.2121 64.599 35.8642 65.6236 35.8642 66.3689C35.8642 67.1141 35.119 67.7662 34.3737 67.7662C33.7217 67.7662 33.4422 67.2073 33.2559 66.6483C32.9764 66.0894 32.697 65.4373 31.9518 65.4373C31.2997 65.4373 30.8339 66.0894 30.8339 66.9278C30.8339 68.2319 32.0449 69.2566 33.6285 69.2566C35.9574 69.2566 37.541 67.5799 37.541 65.251C37.541 63.4811 36.5163 61.9906 35.5847 60.5933C34.9327 59.6618 34.4669 58.8234 34.3737 58.1713C34.3737 56.9603 36.1437 56.122 37.0752 56.122C37.4478 56.122 37.8204 56.2151 38.0999 56.3083C37.541 56.5877 37.2615 57.0535 37.2615 57.7987C37.2615 58.7303 38.0067 59.1029 38.5657 59.1029C39.8698 59.3823 40.3356 58.6371 40.3356 57.8919Z" fill="black"/>
<path d="M41.8263 66.2756C41.8263 65.3441 41.2674 64.5989 40.429 64.5989C39.6838 64.5989 39.0317 65.2509 39.0317 66.2756C39.0317 67.2072 39.6838 67.7661 40.429 67.7661C41.3605 67.8592 41.8263 67.2072 41.8263 66.2756Z" fill="black"/>
<path d="M26.8283 35.069C12.7621 35.069 1.30415 46.4338 1.30415 60.5C1.30415 74.5662 12.7621 85.931 26.7351 85.931C40.8013 85.931 52.1661 74.5662 52.1661 60.5C52.1661 46.4338 40.8013 35.069 26.8283 35.069ZM26.8283 87.2351C12.0168 87.2351 0 75.1252 0 60.5C0 45.8749 12.0168 33.7649 26.8283 33.7649C41.5466 33.7649 53.4702 45.7817 53.4702 60.4069C53.4702 75.032 41.5466 87.2351 26.8283 87.2351Z" fill="black"/>
<path d="M97.3458 68.0456C97.9979 68.0456 98.4637 67.5799 98.4637 66.8346C98.4637 66.1825 97.9048 65.7168 97.3458 65.7168C96.6938 65.7168 96.1348 66.1825 96.1348 66.8346C96.1348 67.4867 96.6938 68.0456 97.3458 68.0456Z" fill="black"/>
<path d="M69.3064 67.859H69.5858L74.7093 55.749H72.8462L70.2379 62.2698C69.8653 63.1082 69.4927 64.4123 69.4927 64.4123C69.4927 64.4123 69.1201 63.015 68.7474 62.2698L66.046 55.749H63.9966L69.3064 67.859Z" fill="black"/>
<path d="M77.0381 67.6727H78.9012V63.2945H84.0246V61.5246H78.9012V57.3327H84.5835V55.749H77.0381V67.6727Z" fill="black"/>
<path d="M90.1726 67.8593C92.5014 67.8593 94.085 66.6483 94.085 64.5989C94.085 62.6427 92.9672 61.7111 91.011 60.8727L90.1726 60.5001C88.9616 59.9412 88.4027 59.5686 88.4027 58.637C88.4027 57.7987 89.0547 57.2397 89.9863 57.2397C90.9178 57.2397 91.4767 57.6123 91.9425 58.4507L93.433 57.5192C92.6877 56.215 91.5699 55.563 90.0794 55.563C88.03 55.563 86.7259 56.8671 86.7259 58.5439C86.7259 60.407 87.8437 61.2453 89.5205 62.0837L90.3589 62.4563C91.663 63.0153 92.4083 63.481 92.4083 64.5989C92.4083 65.6236 91.4767 66.2756 90.2657 66.2756C88.7753 66.2756 88.03 65.5304 87.5643 64.5989L85.7944 65.3441C86.4464 66.7414 87.8437 67.8593 90.1726 67.8593Z" fill="black"/>
<path d="M106.009 67.8593C108.338 67.8593 109.921 67.0209 110.667 66.2756V61.618H105.729V63.2947H108.897V65.4373C108.245 65.903 107.127 66.2756 105.916 66.2756C103.214 66.2756 101.444 64.3194 101.444 61.8043C101.444 59.2891 103.214 57.3329 105.729 57.3329C107.22 57.3329 108.058 57.7987 108.71 58.5439L110.015 57.2397C108.99 56.1219 107.593 55.563 105.729 55.563C102.19 55.563 99.4883 58.0781 99.4883 61.7111C99.5814 65.251 102.283 67.8593 106.009 67.8593Z" fill="black"/>
<path d="M113.182 67.6727H120.634V65.996H115.045V55.749H113.182V67.6727Z" fill="black"/>
<path d="M133.396 61.618C133.396 58.0781 130.695 55.3767 127.155 55.3767C123.615 55.3767 120.914 57.8918 120.914 61.618C120.914 65.1578 123.615 67.8593 127.155 67.8593C130.695 67.8593 133.396 65.251 133.396 61.618ZM131.533 61.618C131.533 64.1331 129.763 66.0894 127.248 66.0894C124.826 66.0894 122.963 64.1331 122.963 61.618C122.963 59.1028 124.826 57.1466 127.248 57.1466C129.763 57.1466 131.533 59.1028 131.533 61.618Z" fill="black"/>
<path d="M143.457 58.73C143.457 57.0532 142.246 55.749 140.103 55.749H135.725V67.7659H140.383C142.898 67.7659 144.295 66.1823 144.295 64.1329C144.295 62.5493 143.457 61.5246 141.873 61.152C142.898 60.593 143.457 59.8478 143.457 58.73ZM137.588 61.8972H140.196C141.687 61.8972 142.432 62.7356 142.432 63.9466C142.432 65.1576 141.687 65.996 140.29 65.996H137.588V61.8972ZM141.687 58.8231C141.687 59.7547 141.128 60.4067 140.01 60.4067H137.588V57.4258H140.01C141.128 57.3327 141.687 57.8916 141.687 58.8231Z" fill="black"/>
<path d="M156.498 67.673L151.189 55.563H151.002L145.879 67.673H147.742L148.86 64.9715H153.517L154.635 67.673H156.498ZM152.679 63.2947H149.419L150.536 60.6864C150.816 59.9412 151.095 58.8233 151.095 58.8233C151.095 58.8233 151.375 59.9412 151.747 60.6864L152.679 63.2947Z" fill="black"/>
<path d="M158.454 67.6727H166V65.996H160.411V55.749H158.454V67.6727Z" fill="black"/>
</g>
<defs>
<clipPath id="clip0_2034_9390">
<rect width="166" height="120" fill="white" transform="translate(0 0.5)"/>
</clipPath>
</defs>
</svg>
