<svg width="112" height="113" viewBox="0 0 112 113" fill="none" xmlns="http://www.w3.org/2000/svg">
<mask id="mask0_2034_9367" style="mask-type:luminance" maskUnits="userSpaceOnUse" x="24" y="46" width="64" height="21">
<path d="M88 46.5H24V66.5H88V46.5Z" fill="white"/>
</mask>
<g mask="url(#mask0_2034_9367)">
<path d="M48.6698 46.5H45.6099V49.7034H48.6698V46.5ZM87.8698 62.8001V55.1488C87.8698 50.6761 85.0706 48.6808 78.7908 48.6808C73.5143 48.6808 70.3651 51.0534 70.3651 55.0274H73.4503C73.4503 52.6486 75.0976 51.5893 78.7908 51.5893C83.2526 51.5893 84.8357 52.5784 84.8357 55.3673C83.7455 55.5137 82.7107 55.6437 81.6993 55.7694C74.1161 56.7176 69.5394 57.2906 69.5394 61.6789C69.5394 63.4 70.1986 64.6203 71.5556 65.4077C72.7698 66.1125 74.9333 66.5 77.6472 66.5C81.3025 66.5 84.3451 65.6115 85.2176 64.2904C85.1388 65.4921 85.2176 66.2383 85.2176 66.2445H88.0001C87.9958 66.2321 87.8698 64.8635 87.8698 62.8001ZM84.8357 59.1972C84.8357 61.0625 84.1743 62.3425 82.813 63.1073C81.5967 63.7916 79.7682 64.1111 77.0627 64.1111C75.4048 64.1111 72.6247 63.7916 72.6247 61.6541C72.6247 60.6112 73.3501 59.9743 75.1275 59.459C77.0436 58.9024 80.2633 58.4715 84.838 57.9604V59.1972H84.8357ZM72.7783 61.6171H72.7018V61.6891H72.7783V61.6171ZM34.9843 46.5H24V66.2445H27.0598V59.2199H34.9843C42.3862 59.2199 43.1863 54.7719 43.1863 52.861C43.1841 50.9483 42.3838 46.5 34.9843 46.5ZM34.4317 56.2889H27.0598V49.4312H34.4338C38.266 49.4312 39.9003 50.4556 39.9003 52.859C39.8983 55.2624 38.2638 56.2889 34.4317 56.2889ZM69.1426 48.8004H64.9051L54.3454 56.9897V46.5H51.2857V66.2445H54.3454V57.9089L65.0031 66.2445H69.4412L58.0581 57.2328L69.1426 48.8004ZM48.6698 51.0884H45.6099V66.2445H48.6698V51.0884Z" fill="black"/>
</g>
</svg>
