<svg width="592" height="290" viewBox="0 0 592 290" fill="none" xmlns="http://www.w3.org/2000/svg">
<rect x="555" y="-312.835" width="37" height="649.577" fill="url(#paint0_linear_2049_10505)"/>
<rect x="370" y="-189.416" width="37" height="649.577" fill="url(#paint1_linear_2049_10505)"/>
<rect x="185" y="-65.9961" width="37" height="649.577" fill="url(#paint2_linear_2049_10505)"/>
<rect y="57.4233" width="37" height="649.577" fill="url(#paint3_linear_2049_10505)"/>
<rect width="37" height="649.577" transform="matrix(-1 0 0 1 444 -214.1)" fill="url(#paint4_linear_2049_10505)"/>
<rect width="37" height="649.577" transform="matrix(-1 0 0 1 259 -90.6802)" fill="url(#paint5_linear_2049_10505)"/>
<rect width="37" height="649.577" transform="matrix(-1 0 0 1 74 32.7395)" fill="url(#paint6_linear_2049_10505)"/>
<rect width="37" height="649.577" transform="matrix(-1 0 0 1 481 -238.784)" fill="url(#paint7_linear_2049_10505)"/>
<rect width="37" height="649.577" transform="matrix(-1 0 0 1 296 -115.364)" fill="url(#paint8_linear_2049_10505)"/>
<rect width="37" height="649.577" transform="matrix(-1 0 0 1 111 8.05542)" fill="url(#paint9_linear_2049_10505)"/>
<rect width="37" height="649.577" transform="matrix(-1 0 0 1 518 -263.468)" fill="url(#paint10_linear_2049_10505)"/>
<rect width="37" height="649.577" transform="matrix(-1 0 0 1 333 -140.048)" fill="url(#paint11_linear_2049_10505)"/>
<rect width="37" height="649.577" transform="matrix(-1 0 0 1 148 -16.6284)" fill="url(#paint12_linear_2049_10505)"/>
<rect width="37" height="649.577" transform="matrix(-1 0 0 1 555 -288.151)" fill="url(#paint13_linear_2049_10505)"/>
<rect width="37" height="649.577" transform="matrix(-1 0 0 1 370 -164.732)" fill="url(#paint14_linear_2049_10505)"/>
<rect width="37" height="649.577" transform="matrix(-1 0 0 1 185 -41.3123)" fill="url(#paint15_linear_2049_10505)"/>
<defs>
<linearGradient id="paint0_linear_2049_10505" x1="573.5" y1="-312.835" x2="573.5" y2="336.741" gradientUnits="userSpaceOnUse">
<stop offset="0.360577" stop-color="#303030"/>
<stop offset="0.567308" stop-color="#C680E9"/>
<stop offset="0.860577" stop-color="#0D81F7"/>
<stop offset="1" stop-color="#91C8FF"/>
</linearGradient>
<linearGradient id="paint1_linear_2049_10505" x1="388.5" y1="-189.416" x2="388.5" y2="460.161" gradientUnits="userSpaceOnUse">
<stop offset="0.360577" stop-color="#303030"/>
<stop offset="0.567308" stop-color="#C680E9"/>
<stop offset="0.860577" stop-color="#0D81F7"/>
<stop offset="1" stop-color="#91C8FF"/>
</linearGradient>
<linearGradient id="paint2_linear_2049_10505" x1="203.5" y1="-65.9961" x2="203.5" y2="583.581" gradientUnits="userSpaceOnUse">
<stop offset="0.360577" stop-color="#303030"/>
<stop offset="0.567308" stop-color="#C680E9"/>
<stop offset="0.860577" stop-color="#0D81F7"/>
<stop offset="1" stop-color="#91C8FF"/>
</linearGradient>
<linearGradient id="paint3_linear_2049_10505" x1="18.5" y1="57.4233" x2="18.5" y2="707" gradientUnits="userSpaceOnUse">
<stop offset="0.360577" stop-color="#303030"/>
<stop offset="0.567308" stop-color="#C680E9"/>
<stop offset="0.860577" stop-color="#0D81F7"/>
<stop offset="1" stop-color="#91C8FF"/>
</linearGradient>
<linearGradient id="paint4_linear_2049_10505" x1="18.5" y1="0" x2="18.5" y2="649.577" gradientUnits="userSpaceOnUse">
<stop offset="0.360577" stop-color="#303030"/>
<stop offset="0.567308" stop-color="#C680E9"/>
<stop offset="0.860577" stop-color="#0D81F7"/>
<stop offset="1" stop-color="#91C8FF"/>
</linearGradient>
<linearGradient id="paint5_linear_2049_10505" x1="18.5" y1="0" x2="18.5" y2="649.577" gradientUnits="userSpaceOnUse">
<stop offset="0.360577" stop-color="#303030"/>
<stop offset="0.567308" stop-color="#C680E9"/>
<stop offset="0.860577" stop-color="#0D81F7"/>
<stop offset="1" stop-color="#91C8FF"/>
</linearGradient>
<linearGradient id="paint6_linear_2049_10505" x1="18.5" y1="0" x2="18.5" y2="649.577" gradientUnits="userSpaceOnUse">
<stop offset="0.360577" stop-color="#303030"/>
<stop offset="0.567308" stop-color="#C680E9"/>
<stop offset="0.860577" stop-color="#0D81F7"/>
<stop offset="1" stop-color="#91C8FF"/>
</linearGradient>
<linearGradient id="paint7_linear_2049_10505" x1="18.5" y1="0" x2="18.5" y2="649.577" gradientUnits="userSpaceOnUse">
<stop offset="0.360577" stop-color="#303030"/>
<stop offset="0.567308" stop-color="#C680E9"/>
<stop offset="0.860577" stop-color="#0D81F7"/>
<stop offset="1" stop-color="#91C8FF"/>
</linearGradient>
<linearGradient id="paint8_linear_2049_10505" x1="18.5" y1="0" x2="18.5" y2="649.577" gradientUnits="userSpaceOnUse">
<stop offset="0.360577" stop-color="#303030"/>
<stop offset="0.567308" stop-color="#C680E9"/>
<stop offset="0.860577" stop-color="#0D81F7"/>
<stop offset="1" stop-color="#91C8FF"/>
</linearGradient>
<linearGradient id="paint9_linear_2049_10505" x1="18.5" y1="0" x2="18.5" y2="649.577" gradientUnits="userSpaceOnUse">
<stop offset="0.360577" stop-color="#303030"/>
<stop offset="0.567308" stop-color="#C680E9"/>
<stop offset="0.860577" stop-color="#0D81F7"/>
<stop offset="1" stop-color="#91C8FF"/>
</linearGradient>
<linearGradient id="paint10_linear_2049_10505" x1="18.5" y1="0" x2="18.5" y2="649.577" gradientUnits="userSpaceOnUse">
<stop offset="0.360577" stop-color="#303030"/>
<stop offset="0.567308" stop-color="#C680E9"/>
<stop offset="0.860577" stop-color="#0D81F7"/>
<stop offset="1" stop-color="#91C8FF"/>
</linearGradient>
<linearGradient id="paint11_linear_2049_10505" x1="18.5" y1="0" x2="18.5" y2="649.577" gradientUnits="userSpaceOnUse">
<stop offset="0.360577" stop-color="#303030"/>
<stop offset="0.567308" stop-color="#C680E9"/>
<stop offset="0.860577" stop-color="#0D81F7"/>
<stop offset="1" stop-color="#91C8FF"/>
</linearGradient>
<linearGradient id="paint12_linear_2049_10505" x1="18.5" y1="0" x2="18.5" y2="649.577" gradientUnits="userSpaceOnUse">
<stop offset="0.360577" stop-color="#303030"/>
<stop offset="0.567308" stop-color="#C680E9"/>
<stop offset="0.860577" stop-color="#0D81F7"/>
<stop offset="1" stop-color="#91C8FF"/>
</linearGradient>
<linearGradient id="paint13_linear_2049_10505" x1="18.5" y1="0" x2="18.5" y2="649.577" gradientUnits="userSpaceOnUse">
<stop offset="0.360577" stop-color="#303030"/>
<stop offset="0.567308" stop-color="#C680E9"/>
<stop offset="0.860577" stop-color="#0D81F7"/>
<stop offset="1" stop-color="#91C8FF"/>
</linearGradient>
<linearGradient id="paint14_linear_2049_10505" x1="18.5" y1="0" x2="18.5" y2="649.577" gradientUnits="userSpaceOnUse">
<stop offset="0.360577" stop-color="#303030"/>
<stop offset="0.567308" stop-color="#C680E9"/>
<stop offset="0.860577" stop-color="#0D81F7"/>
<stop offset="1" stop-color="#91C8FF"/>
</linearGradient>
<linearGradient id="paint15_linear_2049_10505" x1="18.5" y1="0" x2="18.5" y2="649.577" gradientUnits="userSpaceOnUse">
<stop offset="0.360577" stop-color="#303030"/>
<stop offset="0.567308" stop-color="#C680E9"/>
<stop offset="0.860577" stop-color="#0D81F7"/>
<stop offset="1" stop-color="#91C8FF"/>
</linearGradient>
</defs>
</svg>
