<svg width="20" height="22" viewBox="0 0 20 22" fill="none" xmlns="http://www.w3.org/2000/svg">
<path d="M10 17.998V12.1575V10.9979M10 10.9979L4 7.49796M10 10.9979L11.0063 10.4218L18.7315 5.99911C18.9071 6.30276 18.9996 6.64722 19 6.99795V14.9979C18.9996 15.3487 18.9071 15.6931 18.7315 15.9968C18.556 16.3004 18.3037 16.5526 18 16.7279L11 20.7279C10.696 20.9035 10.3511 20.9959 10 20.9959C9.64893 20.9959 9.30404 20.9035 9 20.7279L2 16.7279C1.69626 16.5526 1.44398 16.3004 1.26846 15.9968C1.09294 15.6931 1.00036 15.3487 1 14.9979V6.99795C1.00036 6.64722 1.09294 6.30276 1.26846 5.99911C1.44398 5.69546 1.69626 5.44331 2 5.26795L9 1.26795C9.30404 1.09241 9.64893 1 10 1C10.3511 1 10.696 1.09241 11 1.26795L16 4.12509" stroke="#303030" stroke-width="2" stroke-linecap="round" stroke-linejoin="round"/>
</svg>
