<svg width="19" height="23" viewBox="0 0 19 23" fill="none" xmlns="http://www.w3.org/2000/svg">
<path d="M1 7.50024V13.2697L8.617 20.8798C8.78171 21.0448 8.9773 21.1756 9.1926 21.2649C9.40789 21.3542 9.63866 21.4001 9.87172 21.4001C10.1048 21.4001 10.3356 21.3542 10.5509 21.2649C10.7661 21.1756 10.9617 21.0448 11.1264 20.8798L17.4843 14.5203C17.8146 14.188 18 13.7384 18 13.2697C18 12.8011 17.8146 12.3515 17.4843 12.0191L9.86729 4.4001H6M5.01 8.4001C5.01 8.4001 5.00276 8.40286 5 8.4001C2.00001 5.40011 2.00001 -0.599912 7 1.4001" stroke="#303030" stroke-width="2" stroke-linecap="round" stroke-linejoin="round"/>
</svg>
